<svg version="1.1" id="Layer_1" xmlns="http://www.w3.org/2000/svg" xmlns:xlink="http://www.w3.org/1999/xlink" x="0px" y="0px"
	 width="100%" viewBox="0 0 914 1402" enable-background="new 0 0 914 1402" xml:space="preserve">
<path fill="#4C6971" opacity="1.000000" stroke="none" 
	d="
M915.000000,570.000000 
	C915.000000,847.591980 915.000000,1125.183960 915.000000,1403.000000 
	C662.309326,1403.000000 409.618530,1403.000000 156.463882,1402.531372 
	C156.000000,1360.580078 156.000107,1319.097290 155.999924,1277.614624 
	C155.999878,1268.000977 155.997925,1268.108032 146.564667,1267.976318 
	C130.117004,1267.746704 113.519127,1268.672119 97.258377,1266.769897 
	C68.345436,1263.387451 44.920525,1249.039062 26.810713,1226.280762 
	C10.976467,1206.382324 2.355890,1183.763672 1.955235,1158.174561 
	C1.933376,1156.778320 1.331745,1155.391357 0.999995,1154.000000 
	C1.000000,1126.975952 1.000000,1099.951782 1.316137,1072.715454 
	C4.173201,1094.842041 12.979993,1114.656006 27.373827,1131.632324 
	C49.306755,1157.500122 77.791138,1170.665894 111.613533,1171.910400 
	C124.915710,1172.400024 138.251465,1171.928467 151.570724,1172.038818 
	C154.643570,1172.064209 156.058365,1171.300903 156.045044,1167.878784 
	C155.902527,1131.251099 155.884644,1094.623047 155.886627,1057.529419 
	C155.905731,1024.708862 155.870773,992.354004 155.889893,959.532959 
	C155.906479,930.376038 155.869019,901.685120 155.886230,872.528809 
	C155.904510,858.374451 155.868103,844.685608 155.887146,830.531067 
	C155.906006,809.710144 155.869400,789.354858 155.887970,768.533813 
	C155.906982,755.032166 155.870789,741.996338 155.894775,728.497742 
	C155.915558,706.691040 155.876144,685.347107 155.891968,663.536621 
	C155.907562,645.377869 155.867920,627.685608 155.885010,609.528870 
	C155.902466,603.371094 155.863190,597.677795 155.864777,591.737305 
	C155.882523,591.324829 155.859390,591.159485 155.896423,590.600952 
	C155.921173,589.149353 155.885742,588.090820 155.910461,586.583496 
	C155.930161,583.428589 155.889709,580.722412 155.904877,577.549500 
	C155.918472,558.052795 155.876450,539.022827 155.892120,519.527893 
	C155.911835,499.698059 155.873840,480.333252 155.898804,460.505524 
	C155.961761,423.168976 155.961761,386.295380 155.961761,348.485199 
	C135.560028,349.002991 115.754669,348.476685 96.162476,350.274078 
	C73.738190,352.331268 54.423115,362.526031 37.745285,378.059845 
	C37.328770,378.427429 37.145351,378.700378 36.977947,378.986633 
	C36.993958,378.999939 36.959599,378.973938 36.660583,379.120636 
	C32.561749,383.379669 28.432396,387.237946 25.027170,391.654510 
	C16.588430,402.599640 9.569770,414.361816 6.019718,428.318848 
	C4.226635,435.110229 2.613319,441.555115 1.000001,448.000000 
	C1.000000,299.089355 1.000000,150.178711 1.000000,1.000000 
	C89.690567,1.000000 178.381393,1.000000 267.544159,1.468601 
	C268.010590,25.743208 267.971802,49.549347 268.065796,73.354965 
	C268.072937,75.163773 268.436249,77.662292 269.625305,78.666885 
	C279.937134,87.378906 290.444427,95.861374 300.954681,104.336327 
	C316.578827,116.934845 332.252777,129.471512 348.089661,142.320862 
	C350.501678,144.109818 352.729523,145.612411 355.082916,147.389862 
	C356.107361,148.454010 357.006287,149.243301 358.015442,150.267273 
	C358.411407,150.684311 358.697144,150.866653 358.987610,151.024017 
	C358.992310,150.999054 358.970428,151.047211 359.143005,151.337921 
	C360.983856,152.969208 362.651489,154.310654 364.320648,155.650208 
	C379.222931,167.609695 394.176208,179.506424 409.013062,191.546555 
	C422.457153,202.456482 435.733795,213.572525 449.158997,224.505966 
	C462.682129,235.519165 476.271454,246.451691 489.886536,257.351135 
	C494.470551,261.020844 499.222534,264.480652 504.055664,268.337769 
	C508.727753,272.489166 513.155029,276.446960 517.770935,280.170898 
	C539.668152,297.836731 561.676270,315.365448 583.529053,333.085876 
	C602.328552,348.330383 620.933777,363.814209 639.700195,379.099731 
	C648.872620,386.570801 658.557251,393.448273 667.383972,401.298309 
	C675.700378,408.694427 685.601135,414.120544 693.110474,422.463409 
	C693.485779,422.880371 694.314270,422.889404 694.943604,423.061829 
	C694.955505,423.035248 694.902832,423.059723 695.032776,423.334198 
	C696.455261,424.445221 697.747864,425.281738 699.318848,426.190674 
	C700.027710,426.857758 700.458191,427.452393 701.037231,428.340881 
	C701.996765,429.367310 702.807922,430.099915 703.987671,430.852539 
	C705.555115,431.952057 706.753845,433.031555 708.093872,434.397705 
	C709.143127,435.161835 710.051025,435.639343 711.107178,436.416534 
	C713.267761,438.410828 715.256897,440.133942 717.296326,441.795380 
	C729.287659,451.564331 741.307983,461.297791 753.284973,471.084167 
	C765.014465,480.668213 776.696411,490.310303 788.413391,499.909729 
	C797.066528,506.999084 805.744385,514.058350 814.407471,521.135498 
	C825.753906,530.404785 837.499817,539.236694 848.306519,549.097717 
	C856.197205,556.297852 860.124390,565.968994 859.577576,577.211914 
	C857.980225,582.358826 857.524902,587.692383 855.232971,592.062988 
	C850.383423,601.310974 844.575012,610.056152 838.990601,619.303589 
	C828.159058,631.384827 817.496826,643.169983 806.540039,655.113281 
	C804.329224,657.511780 802.523254,659.858948 800.476562,661.973022 
	C793.683594,668.989685 786.803894,675.922485 779.659607,683.044067 
	C769.896118,692.759155 760.430420,702.317688 750.665771,712.032471 
	C740.464233,721.729614 730.538635,731.246765 720.669189,740.821899 
	C716.018799,745.333557 711.555847,750.039917 706.867737,754.511047 
	C698.617859,762.378784 690.260315,770.133606 681.673889,778.112061 
	C681.242737,778.683838 681.085449,779.079407 680.703003,779.405884 
	C680.477722,779.336853 680.123718,779.647827 679.867798,779.815552 
	C667.057922,791.951050 654.503845,803.918701 641.654053,816.048706 
	C635.189392,821.796021 629.020325,827.381042 622.851318,832.966003 
	C622.584961,832.658508 622.318604,832.351013 622.052246,832.043457 
	C626.379211,827.086426 630.706177,822.129395 635.328003,817.000610 
	C647.446167,803.890381 659.269653,790.951782 671.385010,777.849670 
	C676.492004,772.250183 681.294434,766.803040 686.124878,761.380798 
	C694.258118,752.251099 702.415771,743.143188 710.550903,734.015198 
	C719.744690,723.699280 728.924988,713.371338 738.406128,702.891113 
	C739.423523,702.044373 740.217773,701.415894 740.857788,700.657288 
	C753.930664,685.160339 766.985901,669.648438 780.333374,653.951172 
	C783.209839,650.196533 786.211487,646.855713 788.301758,643.018433 
	C793.116638,634.179016 797.488464,625.098328 802.342651,615.880981 
	C808.414612,597.846069 807.648682,580.607178 797.145813,564.717163 
	C793.154175,558.678101 787.831543,553.518738 782.959900,547.659607 
	C774.702393,539.901855 766.868713,532.122070 758.427063,525.069885 
	C749.102600,517.280273 739.126221,510.276703 729.606689,502.713196 
	C718.433838,493.836090 707.482056,484.681274 696.370544,475.726105 
	C682.789124,464.780304 669.104492,453.962524 655.533691,443.003571 
	C644.128906,433.793762 632.877075,424.394226 621.460205,415.199554 
	C607.107056,403.640076 592.669495,392.185181 578.239685,380.721252 
	C569.872742,374.074036 561.449524,367.497681 552.891846,360.622772 
	C551.834656,359.863037 550.937195,359.369995 549.923462,358.612579 
	C549.222046,357.861969 548.636902,357.375702 547.891968,356.622742 
	C546.834717,355.863007 545.937317,355.369965 544.922852,354.611816 
	C544.218872,353.858459 543.631958,353.370178 542.893555,352.621155 
	C541.867004,351.891693 540.992004,351.423004 539.979736,350.670685 
	C538.912170,349.551178 537.981750,348.715332 536.867554,347.596191 
	C536.104126,347.005585 535.455139,346.783691 534.954834,346.378387 
	C522.184326,336.032898 509.455566,325.635742 496.664459,315.315887 
	C483.472015,304.672241 470.206879,294.118744 457.000244,283.492554 
	C441.220093,270.795685 425.497131,258.027618 409.696259,245.356644 
	C393.517090,232.382309 377.233398,219.538177 361.070282,206.543945 
	C346.563171,194.881073 332.194305,183.046387 317.696533,171.371811 
	C304.876801,161.048508 291.978058,150.823120 279.081635,140.595505 
	C275.720245,137.929688 272.237488,135.416824 268.161560,132.344574 
	C268.161560,150.046051 268.161560,166.521744 268.097931,183.462463 
	C268.078217,195.617126 268.122101,207.306763 268.118225,219.316986 
	C269.098267,220.912018 270.126068,222.186432 271.409546,223.667953 
	C272.428131,224.287491 273.191071,224.699921 274.095276,225.398544 
	C275.143311,226.161835 276.050079,226.638916 277.050140,227.342896 
	C277.346039,227.846222 277.613922,228.024460 278.102692,228.405060 
	C291.041260,238.512192 303.840271,248.298035 316.603394,258.130493 
	C333.932220,271.480316 351.220245,284.883148 368.550690,298.230927 
	C384.582855,310.578766 400.680511,322.841675 416.689362,335.219574 
	C433.743774,348.405975 450.674011,361.753357 467.758087,374.901001 
	C483.914734,387.334991 500.273773,399.506378 516.412964,411.962708 
	C542.068298,431.763611 567.572693,451.760101 593.222046,471.568878 
	C611.315247,485.542236 629.528259,499.360809 647.717957,513.208740 
	C654.754761,518.565979 661.874695,523.813904 669.107422,529.411316 
	C672.156860,531.841553 675.055725,533.972046 678.083313,536.377441 
	C679.141479,537.380737 680.070923,538.109070 681.300537,539.004883 
	C685.722229,542.450134 689.783020,545.807861 693.975708,548.991821 
	C710.588440,561.607605 728.502563,572.651489 742.222839,588.760132 
	C751.335510,599.459106 756.971924,611.385803 753.925476,625.870911 
	C752.987305,630.331909 751.205933,634.615601 749.533203,639.177734 
	C743.628723,647.956787 738.072998,656.586426 732.352356,665.105286 
	C727.652771,672.103699 722.757263,678.970520 717.732910,685.995728 
	C717.238525,686.278931 717.056213,686.531555 716.732300,686.970154 
	C716.373596,687.399475 716.252869,687.712280 715.962158,688.322571 
	C711.510559,694.423218 707.135864,700.160461 702.964233,706.041748 
	C688.596680,726.297302 674.300110,746.603210 659.696411,767.092651 
	C648.999207,782.190491 638.582153,797.085693 627.991943,812.281921 
	C624.304443,817.421936 620.790100,822.261047 617.275818,827.100159 
	C616.906128,826.843079 616.536499,826.585938 616.166870,826.328857 
	C619.123535,820.600647 622.080200,814.872437 625.321228,808.943359 
	C633.885925,794.445312 642.166321,780.148193 650.657837,765.555664 
	C654.566467,758.838257 658.289490,752.430786 661.956360,745.991272 
	C670.531006,730.933105 679.351807,716.005554 687.517029,700.727966 
	C691.353516,693.549805 693.906738,685.685852 697.334106,677.900024 
	C699.672058,669.904541 702.591248,662.241638 703.494202,654.348022 
	C704.255432,647.692871 702.675049,640.769958 702.187622,633.639954 
	C702.018494,631.563416 702.132751,629.680908 701.514099,628.082031 
	C695.896729,613.563416 685.559937,602.669312 673.845032,592.980652 
	C663.441956,584.376831 652.891235,575.939697 642.175598,567.729126 
	C630.268799,558.605896 618.101624,549.822571 605.897278,540.587646 
	C600.891357,535.971436 596.136047,531.539368 591.158752,527.372437 
	C582.129089,519.813171 573.039307,512.321655 563.842957,504.966400 
	C551.342285,494.968292 538.656921,485.200714 526.171509,475.183838 
	C519.645996,469.948547 513.494385,464.247253 506.968445,459.012543 
	C496.600525,450.696045 485.993927,442.677429 475.612183,434.377808 
	C465.288177,426.124298 455.165466,417.619354 444.864136,409.337036 
	C436.037567,402.240295 427.011230,395.391541 418.202057,388.273682 
	C404.775330,377.424835 391.496765,366.392639 378.069855,355.544006 
	C374.915222,352.995117 371.214874,351.110687 368.122009,348.498535 
	C361.480164,342.889099 355.212860,336.833801 348.532410,331.273102 
	C338.595398,323.001678 328.424072,315.012146 318.369781,306.881165 
	C304.142792,295.375702 289.950500,283.827209 275.693268,272.359406 
	C273.561188,270.644470 271.156036,269.269012 268.165924,267.258179 
	C268.165924,289.710602 268.165924,310.852661 268.105225,332.426453 
	C268.518951,335.508545 268.036469,339.315887 269.619812,340.625397 
	C281.768036,350.672791 294.289795,360.270782 306.749939,369.938202 
	C322.320251,382.018677 337.967957,393.999481 353.535950,406.082977 
	C372.723267,420.975708 391.862976,435.929810 411.320740,451.021973 
	C416.196716,454.249847 421.017273,457.013275 425.286560,460.459656 
	C429.674927,464.002106 433.233154,468.582031 437.658966,472.067505 
	C463.341736,492.293365 489.147644,512.363281 514.962524,532.420715 
	C535.451233,548.339905 556.019348,564.156860 576.539734,580.035278 
	C592.770630,592.594666 609.048706,605.094360 625.181824,617.778320 
	C637.741699,627.652954 650.720947,637.183533 658.117371,652.401611 
	C659.047363,658.574463 661.326416,664.507507 660.709961,670.122742 
	C659.500366,681.140991 657.588623,692.263672 654.319580,702.833435 
	C648.887024,720.398560 642.154785,737.561707 635.683350,755.128784 
	C629.581238,771.206848 623.765625,787.050293 617.669861,803.127808 
	C610.172852,821.721863 602.956055,840.081787 595.385925,859.340698 
	C597.075745,858.554688 597.991760,858.320740 598.668457,857.784729 
	C606.953186,851.222534 615.232788,844.653076 623.452209,838.009338 
	C630.377441,832.411682 637.221985,826.714355 644.360352,820.936401 
	C645.083862,820.483948 645.549316,820.156311 646.257690,819.804688 
	C646.799377,819.605042 646.987793,819.348328 647.034180,819.007446 
	C647.002686,819.004395 647.013184,819.066772 647.231567,818.963684 
	C647.752380,818.657898 647.875366,818.376770 648.003906,817.744873 
	C649.130798,816.924622 650.072876,816.376770 651.257812,815.804810 
	C651.799500,815.605042 651.987793,815.348328 652.032959,815.004883 
	C652.000244,814.999207 651.997437,815.065491 652.242432,814.959106 
	C652.703674,814.575134 652.919922,814.297668 653.429199,813.863403 
	C659.682068,809.030151 665.715454,804.443909 671.583740,799.655457 
	C679.492981,793.201721 687.274963,786.592102 695.452759,779.996094 
	C696.099548,779.824219 696.458557,779.772766 696.703247,779.577759 
	C715.171631,764.861389 733.673462,750.186401 752.056946,735.364502 
	C755.938416,732.234985 759.384155,728.564941 763.382690,725.068848 
	C764.778748,724.520813 765.980835,724.243225 766.843079,723.545654 
	C777.274292,715.106262 787.655457,706.604980 798.352173,697.960693 
	C809.434082,689.150208 820.213501,680.498718 831.321228,671.786011 
	C836.495789,667.801514 841.458496,664.012329 846.163452,659.926392 
	C855.223145,652.058411 864.137085,644.022522 873.404175,635.901855 
	C884.584412,625.339478 894.325867,613.992859 902.400757,600.850403 
	C906.792236,590.436523 910.896118,580.218262 915.000000,570.000000 
M583.466553,869.883484 
	C583.673584,869.606201 583.880615,869.328918 584.627136,868.770508 
	C585.368042,867.843628 586.109009,866.916809 586.922546,865.504150 
	C586.922546,865.504150 586.853516,865.017822 586.970642,864.278503 
	C587.268860,862.844238 587.567078,861.409973 588.027771,859.203552 
	C589.882446,851.071045 591.953857,842.980530 593.540955,834.796143 
	C595.909607,822.581604 597.936951,810.300842 600.688293,797.514038 
	C602.742798,784.710571 605.015137,771.936951 606.771667,759.092773 
	C607.862671,751.115234 608.171936,743.030823 608.955505,734.559814 
	C608.955505,734.559814 609.024414,734.113342 609.451172,733.876465 
	C609.752563,733.666260 609.872986,733.379883 609.936340,732.185669 
	C609.900879,730.787292 609.865356,729.388855 609.902161,727.501221 
	C609.902161,727.501221 609.826721,727.012512 609.923401,726.343567 
	C609.891724,725.895203 609.859985,725.446899 609.904724,724.511902 
	C609.904724,724.511902 609.833923,724.024353 609.951721,723.168213 
	C611.987793,707.655762 611.639709,692.154968 608.857483,676.801331 
	C607.526123,669.454407 605.803467,661.930847 598.780334,656.818115 
	C583.071533,669.603149 567.511719,682.266968 551.487000,695.153687 
	C551.286377,695.428589 551.085754,695.703491 550.368530,696.224304 
	C549.878479,696.798828 549.388428,697.373352 548.291382,698.247314 
	C547.575684,698.656128 546.783508,698.971741 546.155579,699.487427 
	C532.100037,711.030151 518.062561,722.594910 503.372528,734.305786 
	C494.423981,741.606079 485.422119,748.842285 476.542114,756.224976 
	C467.922180,763.391418 459.427307,770.708374 450.192047,778.046692 
	C431.378693,793.371765 412.565308,808.696838 393.196320,824.335632 
	C384.473907,831.387390 375.704346,838.381775 367.043121,845.507874 
	C359.284760,851.891174 351.645691,858.419495 343.344757,865.200806 
	C324.300842,879.591614 306.403900,895.091797 293.801300,916.662109 
	C292.736908,918.716431 291.633423,920.751587 290.614441,922.828125 
	C283.309753,937.714478 279.327179,953.409973 279.063446,970.960205 
	C279.700531,981.358643 279.683533,991.847107 281.098572,1002.138550 
	C285.183807,1031.849976 301.553162,1054.311157 324.351318,1072.652100 
	C325.242706,1073.369263 327.666748,1073.427246 328.538879,1072.735718 
	C342.110352,1061.973999 355.543427,1051.037720 369.622864,1039.822998 
	C370.336182,1039.417114 371.118958,1039.098145 371.752472,1038.592407 
	C382.014160,1030.398438 392.293610,1022.226135 402.491577,1013.953369 
	C409.745148,1008.069153 416.883087,1002.042542 424.761078,995.966492 
	C435.692474,987.292908 446.657166,978.660828 457.543182,969.930725 
	C464.451202,964.390747 471.242035,958.704773 478.774536,952.971802 
	C479.337921,952.646851 479.954559,952.388550 480.457001,951.987305 
	C496.649261,939.054993 512.830444,926.108887 529.465210,912.929443 
	C529.661255,912.658997 529.857300,912.388550 530.512634,911.872498 
	C530.717834,911.596863 530.922974,911.321228 531.722229,910.716187 
	C538.260193,905.452942 544.791321,900.181213 551.337524,894.928406 
	C561.227478,886.992676 571.127869,879.069946 581.625977,871.005798 
	C582.117859,870.681885 582.609680,870.357971 583.012817,869.999207 
	C583.012817,869.999207 582.978149,870.087891 583.466553,869.883484 
z"/>
<path fill="#4C6971" opacity="1.000000" stroke="none" 
	d="
M270.000000,0.999997 
	C484.923737,1.000000 699.847473,1.000000 915.000000,1.000000 
	C915.000000,183.025772 915.000000,365.051636 914.665710,547.347351 
	C912.953613,537.873535 907.324341,530.012024 902.645508,521.340454 
	C897.396973,515.848816 892.491394,510.499542 887.225342,505.532440 
	C883.486450,502.005798 879.246887,499.012207 875.255615,495.750275 
	C866.793579,488.834320 858.393066,481.842072 849.883179,474.985626 
	C840.008850,467.029755 829.966919,459.280823 820.135620,451.272827 
	C802.051575,436.542664 784.068359,421.688690 765.888245,406.585419 
	C761.279602,402.766693 756.791992,399.290619 752.380371,395.720734 
	C746.484741,390.949982 740.642212,386.113464 734.787231,381.292633 
	C723.078186,371.651672 711.423462,361.944031 699.659485,352.370697 
	C684.457947,339.999969 669.122803,327.793182 653.935730,315.404846 
	C640.137329,304.149261 626.514099,292.678894 612.715027,281.424133 
	C597.528564,269.037872 582.178345,256.852570 566.994873,244.462708 
	C553.199402,233.205414 539.582764,221.728958 525.793823,210.463577 
	C512.273499,199.417679 498.581909,188.581451 485.063782,177.532913 
	C471.277527,166.265244 457.654663,154.797806 443.878876,143.517197 
	C431.897430,133.705917 419.754059,124.092445 407.770325,114.283989 
	C394.121246,103.112495 380.611298,91.771019 366.964325,80.596947 
	C353.072113,69.222069 339.092438,57.953915 325.140411,46.652180 
	C313.234711,37.008041 301.254913,27.454298 289.423004,17.720606 
	C282.827362,12.294572 276.466614,6.582931 270.000000,0.999997 
z"/>
<path fill="#5E52FE" opacity="1.000000" stroke="none" 
	d="
M155.832596,1057.994995 
	C155.884644,1094.623047 155.902527,1131.251099 156.045044,1167.878784 
	C156.058365,1171.300903 154.643570,1172.064209 151.570724,1172.038818 
	C138.251465,1171.928467 124.915710,1172.400024 111.613533,1171.910400 
	C77.791138,1170.665894 49.306755,1157.500122 27.373827,1131.632324 
	C12.979993,1114.656006 4.173201,1094.842041 1.316137,1072.251587 
	C1.000000,1032.312500 1.000000,992.624878 1.363268,952.528198 
	C4.834369,953.656921 8.125584,954.909912 11.022548,956.775146 
	C54.345074,984.668701 97.602013,1012.664246 140.913193,1040.575439 
	C147.229492,1044.645996 153.854752,1048.304077 154.886368,1056.866211 
	C154.935562,1057.274414 155.505295,1057.620117 155.832596,1057.994995 
z"/>
<path fill="#DC02CE" opacity="1.000000" stroke="none" 
	d="
M269.666687,0.999997 
	C276.466614,6.582931 282.827362,12.294572 289.423004,17.720606 
	C301.254913,27.454298 313.234711,37.008041 325.140411,46.652180 
	C339.092438,57.953915 353.072113,69.222069 366.964325,80.596947 
	C380.611298,91.771019 394.121246,103.112495 407.770325,114.283989 
	C419.754059,124.092445 431.897430,133.705917 443.878876,143.517197 
	C457.654663,154.797806 471.277527,166.265244 485.063782,177.532913 
	C498.581909,188.581451 512.273499,199.417679 525.793823,210.463577 
	C539.582764,221.728958 553.199402,233.205414 566.994873,244.462708 
	C582.178345,256.852570 597.528564,269.037872 612.715027,281.424133 
	C626.514099,292.678894 640.137329,304.149261 653.935730,315.404846 
	C669.122803,327.793182 684.457947,339.999969 699.659485,352.370697 
	C711.423462,361.944031 723.078186,371.651672 734.787231,381.292633 
	C740.642212,386.113464 746.484741,390.949982 752.380371,395.720734 
	C756.791992,399.290619 761.279602,402.766693 765.797058,406.861145 
	C763.999512,410.685089 762.117798,408.298828 760.515259,407.283661 
	C747.707458,399.170593 734.936218,390.999115 722.198547,382.776123 
	C657.948669,341.298584 593.711243,299.801605 529.471497,258.308319 
	C475.588440,223.504517 421.725800,188.669006 367.771210,153.976471 
	C365.251526,152.356323 361.922516,151.994873 358.970428,151.047211 
	C358.970428,151.047211 358.992310,150.999054 358.816406,150.845428 
	C358.406860,150.459274 358.161774,150.239532 357.905243,150.032593 
	C357.006287,149.243301 356.107361,148.454010 354.963165,147.059784 
	C352.447113,144.981384 350.176300,143.507950 347.905518,142.034500 
	C332.252777,129.471512 316.578827,116.934845 300.954681,104.336327 
	C290.444427,95.861374 279.937134,87.378906 269.625305,78.666885 
	C268.436249,77.662292 268.072937,75.163773 268.065796,73.354965 
	C267.971802,49.549347 268.010590,25.743208 268.008057,1.468601 
	C268.444458,1.000000 268.888885,1.000000 269.666687,0.999997 
z"/>
<path fill="#5C53FE" opacity="1.000000" stroke="none" 
	d="
M0.999995,1154.468628 
	C1.331745,1155.391357 1.933376,1156.778320 1.955235,1158.174561 
	C2.355890,1183.763672 10.976467,1206.382324 26.810713,1226.280762 
	C44.920525,1249.039062 68.345436,1263.387451 97.258377,1266.769897 
	C113.519127,1268.672119 130.117004,1267.746704 146.564667,1267.976318 
	C155.997925,1268.108032 155.999878,1268.000977 155.999924,1277.614624 
	C156.000107,1319.097290 156.000000,1360.580078 156.000000,1402.531372 
	C138.645767,1403.000000 121.291542,1403.000000 103.209572,1402.683350 
	C93.792664,1400.566528 84.705399,1399.836914 76.483849,1396.779297 
	C42.490105,1384.137451 18.976648,1360.679932 7.043838,1326.217773 
	C4.435300,1318.684204 2.984166,1310.749756 0.999997,1303.000000 
	C1.000000,1253.645752 1.000000,1204.291504 0.999995,1154.468628 
z"/>
<path fill="#684DFD" opacity="1.000000" stroke="none" 
	d="
M155.886658,1057.529419 
	C155.505295,1057.620117 154.935562,1057.274414 154.886368,1056.866211 
	C153.854752,1048.304077 147.229492,1044.645996 140.913193,1040.575439 
	C97.602013,1012.664246 54.345074,984.668701 11.022548,956.775146 
	C8.125584,954.909912 4.834369,953.656921 1.363268,952.059570 
	C1.000000,916.979126 1.000000,881.958191 1.326101,846.589233 
	C9.547056,851.198608 17.493771,856.075623 25.328062,861.127014 
	C66.068497,887.395569 106.763283,913.734985 147.529175,939.963989 
	C151.457809,942.491760 152.957581,945.700317 153.153656,950.311829 
	C153.292328,953.573059 154.889664,956.772217 155.835815,959.999084 
	C155.870773,992.354004 155.905731,1024.708862 155.886658,1057.529419 
z"/>
<path fill="#8B3CFA" opacity="1.000000" stroke="none" 
	d="
M155.836731,664.003174 
	C155.876144,685.347107 155.915558,706.691040 155.597870,728.343872 
	C153.798996,727.822876 152.316193,727.056519 150.921402,726.154053 
	C107.874870,698.302063 64.873398,670.380127 21.759274,642.633240 
	C15.101452,638.348450 7.932542,634.857910 1.000001,631.000000 
	C1.000000,609.312439 1.000000,587.624878 1.362901,565.529785 
	C4.838132,566.664307 8.132895,567.923096 11.034946,569.791748 
	C45.049007,591.693909 79.031723,613.645081 112.961708,635.677246 
	C127.327278,645.005371 141.549393,654.554504 155.836731,664.003174 
z"/>
<path fill="#D507D1" opacity="1.000000" stroke="none" 
	d="
M902.834290,521.646179 
	C907.324341,530.012024 912.953613,537.873535 914.665710,547.808594 
	C915.000000,551.361267 915.000000,554.722595 914.661926,558.439087 
	C912.562683,557.871521 910.716553,557.080566 909.052673,556.007019 
	C850.488037,518.221191 791.946899,480.399109 733.385010,442.609100 
	C722.344177,435.484406 711.234863,428.465729 700.146484,421.414886 
	C697.780396,419.910278 695.463928,418.776886 694.931702,423.088379 
	C694.314270,422.889404 693.485779,422.880371 693.110474,422.463409 
	C685.601135,414.120544 675.700378,408.694427 667.383972,401.298309 
	C658.557251,393.448273 648.872620,386.570801 639.700195,379.099731 
	C620.933777,363.814209 602.328552,348.330383 583.529053,333.085876 
	C561.676270,315.365448 539.668152,297.836731 517.770935,280.170898 
	C513.155029,276.446960 508.727753,272.489166 504.421844,268.399170 
	C506.762451,269.071838 509.061188,269.719940 511.000488,270.939514 
	C524.671021,279.536560 538.308594,288.187592 551.880432,296.939575 
	C599.463623,327.624329 647.036194,358.325531 694.575256,389.078613 
	C761.828369,432.584717 829.039917,476.155182 896.325562,519.610901 
	C898.165710,520.799316 900.650269,520.990173 902.834290,521.646179 
z"/>
<path fill="#7945FC" opacity="1.000000" stroke="none" 
	d="
M155.831696,830.996765 
	C155.868103,844.685608 155.904510,858.374451 155.604065,872.741821 
	C154.518570,875.538269 153.689560,877.632141 153.044739,879.781311 
	C152.449371,881.765625 152.051529,883.809204 151.566681,885.826721 
	C149.640915,885.058411 147.527664,884.581116 145.816788,883.479187 
	C102.685852,855.697876 59.611927,827.828125 16.481104,800.046692 
	C11.461063,796.813232 6.166996,794.005249 0.999988,791.000000 
	C1.000000,770.645752 1.000000,750.291565 1.366192,729.528076 
	C4.010127,730.100403 6.456387,730.812561 8.535020,732.112610 
	C15.737910,736.617310 22.798342,741.348999 29.939121,745.953735 
	C59.201191,764.823547 88.713272,783.319641 117.632996,802.699951 
	C130.767670,811.502014 146.132278,817.498718 155.831696,830.996765 
z"/>
<path fill="#A42FF8" opacity="1.000000" stroke="none" 
	d="
M1.000001,448.468658 
	C2.613319,441.555115 4.226635,435.110229 6.323976,428.223572 
	C8.660501,428.272278 10.730721,428.390717 12.324552,429.323303 
	C17.055368,432.091583 21.608383,435.165314 26.213537,438.146484 
	C66.962990,464.526001 107.694405,490.933502 148.495804,517.232422 
	C150.643066,518.616394 153.374786,519.093567 155.834412,519.992920 
	C155.876450,539.022827 155.918472,558.052795 155.577988,577.438904 
	C150.486267,574.987549 145.685379,572.321960 141.082230,569.350159 
	C101.096313,543.535278 61.171314,517.626038 21.159519,491.851440 
	C14.611886,487.633636 7.728302,483.937347 1.000000,480.000000 
	C1.000000,469.645782 1.000000,459.291534 1.000001,448.468658 
z"/>
<path fill="#7148FC" opacity="1.000000" stroke="none" 
	d="
M0.999988,791.468689 
	C6.166996,794.005249 11.461063,796.813232 16.481104,800.046692 
	C59.611927,827.828125 102.685852,855.697876 145.816788,883.479187 
	C147.527664,884.581116 149.640915,885.058411 151.566681,885.826721 
	C152.051529,883.809204 152.449371,881.765625 153.044739,879.781311 
	C153.689560,877.632141 154.518570,875.538269 155.549377,873.207275 
	C155.869019,901.685120 155.906479,930.376038 155.889893,959.532959 
	C154.889664,956.772217 153.292328,953.573059 153.153656,950.311829 
	C152.957581,945.700317 151.457809,942.491760 147.529175,939.963989 
	C106.763283,913.734985 66.068497,887.395569 25.328062,861.127014 
	C17.493771,856.075623 9.547056,851.198608 1.326101,846.120605 
	C1.000000,827.979126 1.000000,809.958191 0.999988,791.468689 
z"/>
<path fill="#7E42FB" opacity="1.000000" stroke="none" 
	d="
M155.887161,830.531067 
	C146.132278,817.498718 130.767670,811.502014 117.632996,802.699951 
	C88.713272,783.319641 59.201191,764.823547 29.939121,745.953735 
	C22.798342,741.348999 15.737910,736.617310 8.535020,732.112610 
	C6.456387,730.812561 4.010127,730.100403 1.366192,729.059387 
	C1.000000,711.645752 1.000000,694.291565 1.362738,676.528076 
	C3.546277,676.903076 5.520829,677.448486 7.164933,678.507080 
	C34.901825,696.367310 62.589138,714.304443 90.305458,732.196594 
	C109.062584,744.304993 127.867531,756.339478 146.600677,768.484802 
	C149.690659,770.488159 152.618668,771.239502 155.832779,768.999634 
	C155.869400,789.354858 155.906006,809.710144 155.887161,830.531067 
z"/>
<path fill="#853EFA" opacity="1.000000" stroke="none" 
	d="
M155.887970,768.533813 
	C152.618668,771.239502 149.690659,770.488159 146.600677,768.484802 
	C127.867531,756.339478 109.062584,744.304993 90.305458,732.196594 
	C62.589138,714.304443 34.901825,696.367310 7.164933,678.507080 
	C5.520829,677.448486 3.546277,676.903076 1.362738,676.059448 
	C1.000000,661.312439 1.000000,646.624878 1.000001,631.468628 
	C7.932542,634.857910 15.101452,638.348450 21.759274,642.633240 
	C64.873398,670.380127 107.874870,698.302063 150.921402,726.154053 
	C152.316193,727.056519 153.798996,727.822876 155.537689,728.806641 
	C155.870789,741.996338 155.906982,755.032166 155.887970,768.533813 
z"/>
<path fill="#9B33F9" opacity="1.000000" stroke="none" 
	d="
M1.000000,480.468658 
	C7.728302,483.937347 14.611886,487.633636 21.159519,491.851440 
	C61.171314,517.626038 101.096313,543.535278 141.082230,569.350159 
	C145.685379,572.321960 150.486267,574.987549 155.522354,577.905701 
	C155.889709,580.722412 155.930161,583.428589 155.790146,586.901611 
	C155.406738,588.780090 155.203812,589.891602 155.130920,591.172546 
	C155.438538,591.564941 155.626190,591.779175 155.823914,591.984558 
	C155.863190,597.677795 155.902466,603.371094 155.642731,609.788391 
	C154.943161,611.410889 154.376038,612.272705 154.169022,613.213684 
	C152.828918,619.305115 152.117737,619.631409 146.862152,616.232971 
	C107.465668,590.757141 68.105225,565.225403 28.658636,539.827454 
	C19.587894,533.987183 10.227228,528.597229 1.000000,523.000000 
	C1.000000,508.979095 1.000000,494.958221 1.000000,480.468658 
z"/>
<path fill="#9537F9" opacity="1.000000" stroke="none" 
	d="
M1.000000,523.468628 
	C10.227228,528.597229 19.587894,533.987183 28.658636,539.827454 
	C68.105225,565.225403 107.465668,590.757141 146.862152,616.232971 
	C152.117737,619.631409 152.828918,619.305115 154.169022,613.213684 
	C154.376038,612.272705 154.943161,611.410889 155.586014,610.252930 
	C155.867920,627.685608 155.907562,645.377869 155.891968,663.536621 
	C141.549393,654.554504 127.327278,645.005371 112.961708,635.677246 
	C79.031723,613.645081 45.049007,591.693909 11.034946,569.791748 
	C8.132895,567.923096 4.838132,566.664307 1.362901,565.061096 
	C1.000000,551.312439 1.000000,537.624878 1.000000,523.468628 
z"/>
<path fill="#D00AD3" opacity="1.000000" stroke="none" 
	d="
M694.943604,423.061829 
	C695.463928,418.776886 697.780396,419.910278 700.146484,421.414886 
	C711.234863,428.465729 722.344177,435.484406 733.385010,442.609100 
	C791.946899,480.399109 850.488037,518.221191 909.052673,556.007019 
	C910.716553,557.080566 912.562683,557.871521 914.661926,558.897095 
	C915.000000,562.361267 915.000000,565.722595 915.000000,569.541931 
	C910.896118,580.218262 906.792236,590.436523 902.000854,600.828735 
	C898.589294,599.922241 895.647095,599.200562 893.178772,597.699646 
	C882.008423,590.907532 870.972046,583.895264 859.887390,576.962219 
	C860.124390,565.968994 856.197205,556.297852 848.306519,549.097717 
	C837.499817,539.236694 825.753906,530.404785 814.407471,521.135498 
	C805.744385,514.058350 797.066528,506.999084 788.413391,499.909729 
	C776.696411,490.310303 765.014465,480.668213 753.284973,471.084167 
	C741.307983,461.297791 729.287659,451.564331 717.296326,441.795380 
	C715.256897,440.133942 713.267761,438.410828 711.033508,436.140656 
	C709.858582,435.080414 708.905579,434.595764 707.952576,434.111084 
	C706.753845,433.031555 705.555115,431.952057 703.983337,430.533264 
	C702.703125,429.478333 701.795898,428.762665 700.888733,428.047028 
	C700.458191,427.452393 700.027710,426.857758 699.195923,425.866425 
	C697.497375,424.666412 696.200134,423.863068 694.902832,423.059723 
	C694.902832,423.059723 694.955505,423.035248 694.943604,423.061829 
z"/>
<path fill="#4C6971" opacity="1.000000" stroke="none" 
	d="
M0.999997,1303.468628 
	C2.984166,1310.749756 4.435300,1318.684204 7.043838,1326.217773 
	C18.976648,1360.679932 42.490105,1384.137451 76.483849,1396.779297 
	C84.705399,1399.836914 93.792664,1400.566528 102.740913,1402.683350 
	C69.073776,1403.000000 35.147552,1403.000000 1.000000,1403.000000 
	C1.000000,1369.979370 1.000000,1336.958374 0.999997,1303.468628 
z"/>
<path fill="#C610D6" opacity="1.000000" stroke="none" 
	d="
M681.000305,538.837402 
	C680.070923,538.109070 679.141479,537.380737 678.155273,536.075806 
	C677.285889,531.023865 674.559265,529.118652 668.956787,529.111572 
	C661.874695,523.813904 654.754761,518.565979 647.717957,513.208740 
	C629.528259,499.360809 611.315247,485.542236 593.222046,471.568878 
	C567.572693,451.760101 542.068298,431.763611 516.412964,411.962708 
	C500.273773,399.506378 483.914734,387.334991 467.758087,374.901001 
	C450.674011,361.753357 433.743774,348.405975 416.689362,335.219574 
	C400.680511,322.841675 384.582855,310.578766 368.550690,298.230927 
	C351.220245,284.883148 333.932220,271.480316 316.603394,258.130493 
	C303.840271,248.298035 291.041260,238.512192 278.323303,228.198563 
	C282.727234,225.293243 285.298462,229.111465 288.073334,230.886337 
	C317.405975,249.648163 346.588440,268.644684 375.830872,287.547791 
	C408.291138,308.530975 440.764404,329.493988 473.243042,350.448700 
	C534.139954,389.738342 595.056274,428.997925 655.942200,468.304504 
	C695.413635,493.786377 734.823669,519.363403 774.345459,544.766663 
	C776.898071,546.407410 780.175415,546.920654 783.115601,547.958435 
	C787.831543,553.518738 793.154175,558.678101 797.145813,564.717163 
	C807.648682,580.607178 808.414612,597.846069 802.220520,615.549927 
	C799.405396,612.996643 797.366943,610.004028 794.569519,608.167053 
	C769.791992,591.896606 744.888245,575.818237 720.003845,559.710815 
	C709.099915,552.652893 698.183899,545.612366 687.199524,538.681091 
	C685.291565,537.477173 682.958313,535.120789 681.000305,538.837402 
z"/>
<path fill="#C90ED5" opacity="1.000000" stroke="none" 
	d="
M782.959900,547.659607 
	C780.175415,546.920654 776.898071,546.407410 774.345459,544.766663 
	C734.823669,519.363403 695.413635,493.786377 655.942200,468.304504 
	C595.056274,428.997925 534.139954,389.738342 473.243042,350.448700 
	C440.764404,329.493988 408.291138,308.530975 375.830872,287.547791 
	C346.588440,268.644684 317.405975,249.648163 288.073334,230.886337 
	C285.298462,229.111465 282.727234,225.293243 278.167786,227.898026 
	C277.613922,228.024460 277.346039,227.846222 276.977234,227.066971 
	C275.858673,226.080200 274.906342,225.596268 273.954010,225.112335 
	C273.191071,224.699921 272.428131,224.287491 271.589478,223.392609 
	C272.981995,219.395142 270.310333,219.421280 268.165985,218.996399 
	C268.122101,207.306763 268.078217,195.617126 268.409912,183.345215 
	C271.788361,180.980682 274.353210,181.871811 277.094116,183.677170 
	C288.631897,191.276749 300.268036,198.727203 311.874756,206.222031 
	C374.941620,246.946274 438.013458,287.662781 501.075562,328.394379 
	C511.421570,335.076782 521.725708,341.823914 532.054199,348.533447 
	C533.890015,349.726013 535.821899,351.423187 537.051331,347.879456 
	C537.981750,348.715332 538.912170,349.551178 539.796387,350.823822 
	C539.857727,352.076477 539.965271,352.892395 540.072754,353.708282 
	C541.063538,353.432831 542.054260,353.157379 543.045044,352.881897 
	C543.631958,353.370178 544.218872,353.858459 544.996338,354.888611 
	C546.141846,355.916840 547.096863,356.403137 548.051819,356.889435 
	C548.636902,357.375702 549.222046,357.861969 549.997009,358.889374 
	C551.141785,359.916840 552.096741,360.403137 553.051636,360.889465 
	C561.449524,367.497681 569.872742,374.074036 578.239685,380.721252 
	C592.669495,392.185181 607.107056,403.640076 621.460205,415.199554 
	C632.877075,424.394226 644.128906,433.793762 655.533691,443.003571 
	C669.104492,453.962524 682.789124,464.780304 696.370544,475.726105 
	C707.482056,484.681274 718.433838,493.836090 729.606689,502.713196 
	C739.126221,510.276703 749.102600,517.280273 758.427063,525.069885 
	C766.868713,532.122070 774.702393,539.901855 782.959900,547.659607 
z"/>
<path fill="#8C34EC" opacity="1.000000" stroke="none" 
	d="
M393.751953,824.021851 
	C412.565308,808.696838 431.378693,793.371765 450.907227,777.972839 
	C456.238800,775.835205 460.120789,775.884399 464.863861,778.996460 
	C498.839417,801.288086 533.127991,823.101990 567.220032,845.217346 
	C574.309631,849.816406 580.994080,855.039978 587.865234,859.975708 
	C587.567078,861.409973 587.268860,862.844238 586.892395,864.769165 
	C586.789429,865.504639 586.801392,865.748047 586.849976,865.989929 
	C586.109009,866.916809 585.368042,867.843628 584.172241,869.082153 
	C583.470947,869.625183 583.224487,869.856506 582.978149,870.087891 
	C582.978149,870.087891 583.012817,869.999207 582.786987,870.136230 
	C582.048767,870.562744 581.536316,870.852234 581.023865,871.141663 
	C571.127869,879.069946 561.227478,886.992676 551.337524,894.928406 
	C544.791321,900.181213 538.260193,905.452942 531.236450,911.049561 
	C530.518250,911.627991 530.285767,911.873047 530.053345,912.118103 
	C529.857300,912.388550 529.661255,912.658997 529.118164,912.717529 
	C527.548401,911.196350 526.531250,909.570312 525.072937,908.624268 
	C489.193726,885.346985 453.277008,862.127563 417.342743,838.935181 
	C409.526642,833.890564 401.617981,828.989258 393.751953,824.021851 
z"/>
<path fill="#B719DC" opacity="1.000000" stroke="none" 
	d="
M411.023254,450.857361 
	C391.862976,435.929810 372.723267,420.975708 353.535950,406.082977 
	C337.967957,393.999481 322.320251,382.018677 306.749939,369.938202 
	C294.289795,360.270782 281.768036,350.672791 269.619812,340.625397 
	C268.036469,339.315887 268.518951,335.508545 268.351746,332.240906 
	C271.000763,328.290894 273.528351,328.604462 276.722900,330.688202 
	C298.065155,344.609528 319.485931,358.410706 340.894989,372.229431 
	C402.883179,412.240601 464.862885,452.264984 526.877563,492.235046 
	C551.234802,507.933960 575.657837,523.531311 600.119202,539.067322 
	C601.802490,540.136414 604.058228,540.304260 606.047791,540.891296 
	C618.101624,549.822571 630.268799,558.605896 642.175598,567.729126 
	C652.891235,575.939697 663.441956,584.376831 673.845032,592.980652 
	C685.559937,602.669312 695.896729,613.563416 701.514099,628.082031 
	C702.132751,629.680908 702.018494,631.563416 701.824341,633.578491 
	C693.733398,629.211487 685.938049,624.772827 678.410095,619.919495 
	C604.653931,572.367981 530.949097,524.736816 457.211456,477.156555 
	C443.919830,468.579895 430.592285,460.055908 417.146576,451.725128 
	C415.542145,450.731079 413.085083,451.113129 411.023254,450.857361 
z"/>
<path fill="#D804CF" opacity="1.000000" stroke="none" 
	d="
M902.645508,521.340454 
	C900.650269,520.990173 898.165710,520.799316 896.325562,519.610901 
	C829.039917,476.155182 761.828369,432.584717 694.575256,389.078613 
	C647.036194,358.325531 599.463623,327.624329 551.880432,296.939575 
	C538.308594,288.187592 524.671021,279.536560 511.000488,270.939514 
	C509.061188,269.719940 506.762451,269.071838 504.263916,268.097839 
	C499.222534,264.480652 494.470551,261.020844 489.886536,257.351135 
	C476.271454,246.451691 462.682129,235.519165 449.158997,224.505966 
	C435.733795,213.572525 422.457153,202.456482 409.013062,191.546555 
	C394.176208,179.506424 379.222931,167.609695 364.320648,155.650208 
	C362.651489,154.310654 360.983856,152.969208 359.143005,151.337921 
	C361.922516,151.994873 365.251526,152.356323 367.771210,153.976471 
	C421.725800,188.669006 475.588440,223.504517 529.471497,258.308319 
	C593.711243,299.801605 657.948669,341.298584 722.198547,382.776123 
	C734.936218,390.999115 747.707458,399.170593 760.515259,407.283661 
	C762.117798,408.298828 763.999512,410.685089 765.951965,407.162048 
	C784.068359,421.688690 802.051575,436.542664 820.135620,451.272827 
	C829.966919,459.280823 840.008850,467.029755 849.883179,474.985626 
	C858.393066,481.842072 866.793579,488.834320 875.255615,495.750275 
	C879.246887,499.012207 883.486450,502.005798 887.225342,505.532440 
	C892.491394,510.499542 897.396973,515.848816 902.645508,521.340454 
z"/>
<path fill="#803CF1" opacity="1.000000" stroke="none" 
	d="
M393.474121,824.178772 
	C401.617981,828.989258 409.526642,833.890564 417.342743,838.935181 
	C453.277008,862.127563 489.193726,885.346985 525.072937,908.624268 
	C526.531250,909.570312 527.548401,911.196350 528.892212,912.835205 
	C512.830444,926.108887 496.649261,939.054993 480.457001,951.987305 
	C479.954559,952.388550 479.337921,952.646851 478.058472,952.895203 
	C473.319733,951.369202 468.854797,950.611267 465.342407,948.364319 
	C426.963837,923.813049 388.755280,898.996216 350.429932,874.361450 
	C346.784210,872.018127 344.547607,869.114319 343.954010,864.883911 
	C351.645691,858.419495 359.284760,851.891174 367.043121,845.507874 
	C375.704346,838.381775 384.473907,831.387390 393.474121,824.178772 
z"/>
<path fill="#BB17DA" opacity="1.000000" stroke="none" 
	d="
M605.897278,540.587646 
	C604.058228,540.304260 601.802490,540.136414 600.119202,539.067322 
	C575.657837,523.531311 551.234802,507.933960 526.877563,492.235046 
	C464.862885,452.264984 402.883179,412.240601 340.894989,372.229431 
	C319.485931,358.410706 298.065155,344.609528 276.722900,330.688202 
	C273.528351,328.604462 271.000763,328.290894 268.412415,331.809204 
	C268.165924,310.852661 268.165924,289.710602 268.165924,267.258179 
	C271.156036,269.269012 273.561188,270.644470 275.693268,272.359406 
	C289.950500,283.827209 304.142792,295.375702 318.369781,306.881165 
	C328.424072,315.012146 338.595398,323.001678 348.532410,331.273102 
	C355.212860,336.833801 361.480164,342.889099 368.122009,348.498535 
	C371.214874,351.110687 374.915222,352.995117 378.069855,355.544006 
	C391.496765,366.392639 404.775330,377.424835 418.202057,388.273682 
	C427.011230,395.391541 436.037567,402.240295 444.864136,409.337036 
	C455.165466,417.619354 465.288177,426.124298 475.612183,434.377808 
	C485.993927,442.677429 496.600525,450.696045 506.968445,459.012543 
	C513.494385,464.247253 519.645996,469.948547 526.171509,475.183838 
	C538.656921,485.200714 551.342285,494.968292 563.842957,504.966400 
	C573.039307,512.321655 582.129089,519.813171 591.158752,527.372437 
	C596.136047,531.539368 600.891357,535.971436 605.897278,540.587646 
z"/>
<path fill="#7940F3" opacity="1.000000" stroke="none" 
	d="
M343.649384,865.042358 
	C344.547607,869.114319 346.784210,872.018127 350.429932,874.361450 
	C388.755280,898.996216 426.963837,923.813049 465.342407,948.364319 
	C468.854797,950.611267 473.319733,951.369202 477.713867,952.951416 
	C471.242035,958.704773 464.451202,964.390747 457.543182,969.930725 
	C446.657166,978.660828 435.692474,987.292908 424.266449,995.714844 
	C422.310028,994.156799 420.980896,992.650574 419.364288,991.577454 
	C410.778687,985.878235 402.143799,980.252258 393.484039,974.665894 
	C364.433624,955.925537 335.321167,937.280701 306.355988,918.409668 
	C302.399597,915.832092 298.586609,914.961609 294.155365,916.055481 
	C306.403900,895.091797 324.300842,879.591614 343.649384,865.042358 
z"/>
<path fill="#7146F6" opacity="1.000000" stroke="none" 
	d="
M293.978333,916.358765 
	C298.586609,914.961609 302.399597,915.832092 306.355988,918.409668 
	C335.321167,937.280701 364.433624,955.925537 393.484039,974.665894 
	C402.143799,980.252258 410.778687,985.878235 419.364288,991.577454 
	C420.980896,992.650574 422.310028,994.156799 423.922211,995.771301 
	C416.883087,1002.042542 409.745148,1008.069153 402.491577,1013.953369 
	C392.293610,1022.226135 382.014160,1030.398438 371.752472,1038.592407 
	C371.118958,1039.098145 370.336182,1039.417114 369.190338,1039.657227 
	C366.167877,1037.229492 363.807068,1034.614380 360.951813,1032.761108 
	C338.174011,1017.976501 315.385773,1003.204041 292.410553,988.729736 
	C285.233124,984.208008 278.188202,980.100525 279.170624,970.031128 
	C279.327179,953.409973 283.309753,937.714478 290.614441,922.828125 
	C291.633423,920.751587 292.736908,918.716431 293.978333,916.358765 
z"/>
<path fill="#AC2BF7" opacity="1.000000" stroke="none" 
	d="
M155.892120,519.527893 
	C153.374786,519.093567 150.643066,518.616394 148.495804,517.232422 
	C107.694405,490.933502 66.962990,464.526001 26.213537,438.146484 
	C21.608383,435.165314 17.055368,432.091583 12.324552,429.323303 
	C10.730721,428.390717 8.660501,428.272278 6.503741,427.877045 
	C9.569770,414.361816 16.588430,402.599640 25.027170,391.654510 
	C28.432396,387.237946 32.561749,383.379669 36.743645,379.464417 
	C38.350739,381.160614 39.295269,383.092407 40.842110,384.095062 
	C73.746811,405.424896 106.777550,426.560883 139.623581,447.980225 
	C145.396133,451.744598 150.450043,456.610992 155.835846,460.968445 
	C155.873840,480.333252 155.911835,499.698059 155.892120,519.527893 
z"/>
<path fill="#9330E9" opacity="1.000000" stroke="none" 
	d="
M587.946533,859.589600 
	C580.994080,855.039978 574.309631,849.816406 567.220032,845.217346 
	C533.127991,823.101990 498.839417,801.288086 464.863861,778.996460 
	C460.120789,775.884399 456.238800,775.835205 451.250000,777.929077 
	C459.427307,770.708374 467.922180,763.391418 476.542114,756.224976 
	C485.422119,748.842285 494.423981,741.606079 503.900604,734.486328 
	C505.787811,735.883118 507.016327,737.299927 508.526703,738.284119 
	C520.940613,746.373779 533.442078,754.329224 545.849060,762.429382 
	C563.965454,774.257019 582.025452,786.171082 600.109558,798.048279 
	C597.936951,810.300842 595.909607,822.581604 593.540955,834.796143 
	C591.953857,842.980530 589.882446,851.071045 587.946533,859.589600 
z"/>
<path fill="#B626F6" opacity="1.000000" stroke="none" 
	d="
M155.898804,460.505524 
	C150.450043,456.610992 145.396133,451.744598 139.623581,447.980225 
	C106.777550,426.560883 73.746811,405.424896 40.842110,384.095062 
	C39.295269,383.092407 38.350739,381.160614 37.042660,379.317719 
	C36.959599,378.973938 36.993958,378.999939 37.157608,378.829376 
	C37.554550,378.441132 37.773590,378.209930 37.978382,377.965210 
	C54.423115,362.526031 73.738190,352.331268 96.162476,350.274078 
	C115.754669,348.476685 135.560028,349.002991 155.961761,348.485199 
	C155.961761,386.295380 155.961761,423.168976 155.898804,460.505524 
z"/>
<path fill="#B31CDE" opacity="1.000000" stroke="none" 
	d="
M411.320740,451.021973 
	C413.085083,451.113129 415.542145,450.731079 417.146576,451.725128 
	C430.592285,460.055908 443.919830,468.579895 457.211456,477.156555 
	C530.949097,524.736816 604.653931,572.367981 678.410095,619.919495 
	C685.938049,624.772827 693.733398,629.211487 701.767883,633.904053 
	C702.675049,640.769958 704.255432,647.692871 703.494202,654.348022 
	C702.591248,662.241638 699.672058,669.904541 697.172729,677.592651 
	C694.546387,675.297119 692.665833,672.647278 690.147522,670.935425 
	C682.327698,665.619934 674.322266,660.568420 666.263916,655.617798 
	C663.767090,654.083862 660.870911,653.199768 658.157532,652.018188 
	C650.720947,637.183533 637.741699,627.652954 625.181824,617.778320 
	C609.048706,605.094360 592.770630,592.594666 576.539734,580.035278 
	C556.019348,564.156860 535.451233,548.339905 514.962524,532.420715 
	C489.147644,512.363281 463.341736,492.293365 437.658966,472.067505 
	C433.233154,468.582031 429.674927,464.002106 425.286560,460.459656 
	C421.017273,457.013275 416.196716,454.249847 411.320740,451.021973 
z"/>
<path fill="#D00AD3" opacity="1.000000" stroke="none" 
	d="
M536.867554,347.596191 
	C535.821899,351.423187 533.890015,349.726013 532.054199,348.533447 
	C521.725708,341.823914 511.421570,335.076782 501.075562,328.394379 
	C438.013458,287.662781 374.941620,246.946274 311.874756,206.222031 
	C300.268036,198.727203 288.631897,191.276749 277.094116,183.677170 
	C274.353210,181.871811 271.788361,180.980682 268.473511,182.880188 
	C268.161560,166.521744 268.161560,150.046051 268.161560,132.344574 
	C272.237488,135.416824 275.720245,137.929688 279.081635,140.595505 
	C291.978058,150.823120 304.876801,161.048508 317.696533,171.371811 
	C332.194305,183.046387 346.563171,194.881073 361.070282,206.543945 
	C377.233398,219.538177 393.517090,232.382309 409.696259,245.356644 
	C425.497131,258.027618 441.220093,270.795685 457.000244,283.492554 
	C470.206879,294.118744 483.472015,304.672241 496.664459,315.315887 
	C509.455566,325.635742 522.184326,336.032898 534.954834,346.378387 
	C535.455139,346.783691 536.104126,347.005585 536.867554,347.596191 
z"/>
<path fill="#9C2AE6" opacity="1.000000" stroke="none" 
	d="
M600.398926,797.781128 
	C582.025452,786.171082 563.965454,774.257019 545.849060,762.429382 
	C533.442078,754.329224 520.940613,746.373779 508.526703,738.284119 
	C507.016327,737.299927 505.787811,735.883118 504.225189,734.411133 
	C518.062561,722.594910 532.100037,711.030151 546.155579,699.487427 
	C546.783508,698.971741 547.575684,698.656128 548.904541,698.259277 
	C562.264221,706.459839 574.942688,714.757141 587.784668,722.793213 
	C594.655090,727.092590 601.807129,730.941895 608.832031,734.994385 
	C608.171936,743.030823 607.862671,751.115234 606.771667,759.092773 
	C605.015137,771.936951 602.742798,784.710571 600.398926,797.781128 
z"/>
<path fill="#684DFD" opacity="1.000000" stroke="none" 
	d="
M279.117035,970.495667 
	C278.188202,980.100525 285.233124,984.208008 292.410553,988.729736 
	C315.385773,1003.204041 338.174011,1017.976501 360.951813,1032.761108 
	C363.807068,1034.614380 366.167877,1037.229492 368.883179,1039.816650 
	C355.543427,1051.037720 342.110352,1061.973999 328.538879,1072.735718 
	C327.666748,1073.427246 325.242706,1073.369263 324.351318,1072.652100 
	C301.553162,1054.311157 285.183807,1031.849976 281.098572,1002.138550 
	C279.683533,991.847107 279.700531,981.358643 279.117035,970.495667 
z"/>
<path fill="#BB17DA" opacity="1.000000" stroke="none" 
	d="
M681.300537,539.004883 
	C682.958313,535.120789 685.291565,537.477173 687.199524,538.681091 
	C698.183899,545.612366 709.099915,552.652893 720.003845,559.710815 
	C744.888245,575.818237 769.791992,591.896606 794.569519,608.167053 
	C797.366943,610.004028 799.405396,612.996643 801.917969,615.784485 
	C797.488464,625.098328 793.116638,634.179016 788.301758,643.018433 
	C786.211487,646.855713 783.209839,650.196533 780.006042,653.785706 
	C773.421875,650.429382 767.543396,646.876221 761.452332,643.735535 
	C757.741211,641.821899 753.702271,640.543945 749.810608,638.980469 
	C751.205933,634.615601 752.987305,630.331909 753.925476,625.870911 
	C756.971924,611.385803 751.335510,599.459106 742.222839,588.760132 
	C728.502563,572.651489 710.588440,561.607605 693.975708,548.991821 
	C689.783020,545.807861 685.722229,542.450134 681.300537,539.004883 
z"/>
<path fill="#A525E3" opacity="1.000000" stroke="none" 
	d="
M658.117371,652.401611 
	C660.870911,653.199768 663.767090,654.083862 666.263916,655.617798 
	C674.322266,660.568420 682.327698,665.619934 690.147522,670.935425 
	C692.665833,672.647278 694.546387,675.297119 696.880127,677.825195 
	C693.906738,685.685852 691.353516,693.549805 687.517029,700.727966 
	C679.351807,716.005554 670.531006,730.933105 661.956360,745.991272 
	C658.289490,752.430786 654.566467,758.838257 650.436035,765.226868 
	C645.325439,761.760376 640.647705,758.327271 635.969971,754.894165 
	C642.154785,737.561707 648.887024,720.398560 654.319580,702.833435 
	C657.588623,692.263672 659.500366,681.140991 660.709961,670.122742 
	C661.326416,664.507507 659.047363,658.574463 658.117371,652.401611 
z"/>
<path fill="#A525E3" opacity="1.000000" stroke="none" 
	d="
M608.893799,734.777100 
	C601.807129,730.941895 594.655090,727.092590 587.784668,722.793213 
	C574.942688,714.757141 562.264221,706.459839 549.208008,698.109558 
	C549.388428,697.373352 549.878479,696.798828 550.815674,695.937744 
	C551.507751,695.425537 551.737427,695.185486 551.951904,694.930847 
	C567.511719,682.266968 583.071533,669.603149 598.780334,656.818115 
	C605.803467,661.930847 607.526123,669.454407 608.857483,676.801331 
	C611.639709,692.154968 611.987793,707.655762 609.865723,723.716797 
	C609.746826,724.512695 609.763062,724.757080 609.828308,724.998535 
	C609.859985,725.446899 609.891724,725.895203 609.848511,726.799316 
	C609.743164,727.503723 609.761902,727.748840 609.829834,727.990479 
	C609.865356,729.388855 609.900879,730.787292 609.730835,732.775635 
	C609.340149,733.602661 609.173218,733.851929 609.024414,734.113342 
	C609.024414,734.113342 608.955505,734.559814 608.893799,734.777100 
z"/>
<path fill="#A525E3" opacity="1.000000" stroke="none" 
	d="
M716.970215,686.853638 
	C717.056213,686.531555 717.238525,686.278931 718.069336,686.157654 
	C719.894165,686.598083 721.298035,686.748413 722.417786,687.392639 
	C729.035461,691.199646 737.926208,692.785522 738.111206,703.048706 
	C728.924988,713.371338 719.744690,723.699280 710.550903,734.015198 
	C702.415771,743.143188 694.258118,752.251099 686.124878,761.380798 
	C681.294434,766.803040 676.492004,772.250183 671.047363,777.715210 
	C665.156067,775.839661 659.977722,773.854919 659.976501,766.889954 
	C674.300110,746.603210 688.596680,726.297302 702.964233,706.041748 
	C707.135864,700.160461 711.510559,694.423218 716.112732,688.134399 
	C716.620850,687.389526 716.799805,687.124512 716.970215,686.853638 
z"/>
<path fill="#C610D6" opacity="1.000000" stroke="none" 
	d="
M859.577576,577.211914 
	C870.972046,583.895264 882.008423,590.907532 893.178772,597.699646 
	C895.647095,599.200562 898.589294,599.922241 901.713196,601.024353 
	C894.325867,613.992859 884.584412,625.339478 872.972900,635.893433 
	C868.553711,634.844360 864.564758,634.183350 861.222595,632.345886 
	C853.698181,628.209229 846.494263,623.489807 839.159851,619.007568 
	C844.575012,610.056152 850.383423,601.310974 855.232971,592.062988 
	C857.524902,587.692383 857.980225,582.358826 859.577576,577.211914 
z"/>
<path fill="#B31CDE" opacity="1.000000" stroke="none" 
	d="
M738.406128,702.891113 
	C737.926208,692.785522 729.035461,691.199646 722.417786,687.392639 
	C721.298035,686.748413 719.894165,686.598083 718.285095,686.057617 
	C722.757263,678.970520 727.652771,672.103699 732.352356,665.105286 
	C738.072998,656.586426 743.628723,647.956787 749.533203,639.177734 
	C753.702271,640.543945 757.741211,641.821899 761.452332,643.735535 
	C767.543396,646.876221 773.421875,650.429382 779.717285,653.974060 
	C766.985901,669.648438 753.930664,685.160339 740.857788,700.657288 
	C740.217773,701.415894 739.423523,702.044373 738.406128,702.891113 
z"/>
<path fill="#BB17DA" opacity="1.000000" stroke="none" 
	d="
M838.990601,619.303589 
	C846.494263,623.489807 853.698181,628.209229 861.222595,632.345886 
	C864.564758,634.183350 868.553711,634.844360 872.680298,636.047852 
	C864.137085,644.022522 855.223145,652.058411 846.163452,659.926392 
	C841.458496,664.012329 836.495789,667.801514 831.213867,671.461670 
	C824.481018,663.301636 815.951721,658.695190 806.834595,654.955200 
	C817.496826,643.169983 828.159058,631.384827 838.990601,619.303589 
z"/>
<path fill="#A525E3" opacity="1.000000" stroke="none" 
	d="
M681.947815,777.935730 
	C690.260315,770.133606 698.617859,762.378784 706.867737,754.511047 
	C711.555847,750.039917 716.018799,745.333557 720.669189,740.821899 
	C730.538635,731.246765 740.464233,721.729614 750.790161,712.357300 
	C753.500366,714.597046 755.920837,716.541870 758.033752,718.777283 
	C759.879150,720.729675 761.378479,723.009155 763.030762,725.144043 
	C759.384155,728.564941 755.938416,732.234985 752.056946,735.364502 
	C733.673462,750.186401 715.171631,764.861389 696.703247,779.577759 
	C696.458557,779.772766 696.099548,779.824219 695.117798,779.934509 
	C689.657043,780.447449 684.830872,783.107788 680.123718,779.647827 
	C680.123718,779.647827 680.477722,779.336853 680.868286,779.145874 
	C681.488464,778.615173 681.718140,778.275452 681.947815,777.935730 
z"/>
<path fill="#B719DC" opacity="1.000000" stroke="none" 
	d="
M806.540039,655.113281 
	C815.951721,658.695190 824.481018,663.301636 830.885498,671.522888 
	C820.213501,680.498718 809.434082,689.150208 798.125610,697.703857 
	C793.114624,694.595459 788.493408,691.766418 784.216980,688.487671 
	C782.421387,687.111084 781.355164,684.782959 779.957397,682.887451 
	C786.803894,675.922485 793.683594,668.989685 800.476562,661.973022 
	C802.523254,659.858948 804.329224,657.511780 806.540039,655.113281 
z"/>
<path fill="#B31CDE" opacity="1.000000" stroke="none" 
	d="
M779.659546,683.044006 
	C781.355164,684.782959 782.421387,687.111084 784.216980,688.487671 
	C788.493408,691.766418 793.114624,694.595459 797.823120,697.862976 
	C787.655457,706.604980 777.274292,715.106262 766.843079,723.545654 
	C765.980835,724.243225 764.778748,724.520813 763.382690,725.068848 
	C761.378479,723.009155 759.879150,720.729675 758.033752,718.777283 
	C755.920837,716.541870 753.500366,714.597046 751.089111,712.201050 
	C760.430420,702.317688 769.896118,692.759155 779.659546,683.044006 
z"/>
<path fill="#9330E9" opacity="1.000000" stroke="none" 
	d="
M635.033203,817.172302 
	C630.706177,822.129395 626.379211,827.086426 622.052246,832.043457 
	C622.318604,832.351013 622.584961,832.658508 622.851318,832.966003 
	C629.020325,827.381042 635.189392,821.796021 641.746399,816.391357 
	C642.790344,818.068176 643.446289,819.564636 644.102295,821.061157 
	C637.221985,826.714355 630.377441,832.411682 623.452209,838.009338 
	C615.232788,844.653076 606.953186,851.222534 598.668457,857.784729 
	C597.991760,858.320740 597.075745,858.554688 595.385925,859.340698 
	C602.956055,840.081787 610.172852,821.721863 617.929932,803.344971 
	C620.659119,805.266724 622.848022,807.205444 625.036865,809.144226 
	C622.080200,814.872437 619.123535,820.600647 616.166870,826.328857 
	C616.536499,826.585938 616.906128,826.843079 617.275818,827.100159 
	C620.790100,822.261047 624.304443,817.421936 628.350342,812.324097 
	C630.932251,813.767700 632.982727,815.469971 635.033203,817.172302 
M613.428772,830.242981 
	C613.051575,831.162903 612.674438,832.082764 612.297241,833.002686 
	C612.527710,833.110046 612.758118,833.217407 612.988525,833.324768 
	C613.574280,832.420166 614.160034,831.515625 615.178772,830.192139 
	C615.197144,829.509460 615.215515,828.826721 615.233948,828.144043 
	C614.798767,828.738342 614.363586,829.332642 613.428772,830.242981 
M620.998413,834.077576 
	C620.910156,833.837097 620.821838,833.596680 620.733521,833.356201 
	C620.598755,833.433167 620.339600,833.537720 620.349548,833.582642 
	C620.408997,833.850464 620.530579,834.104553 620.998413,834.077576 
z"/>
<path fill="#9C2AE6" opacity="1.000000" stroke="none" 
	d="
M625.321167,808.943359 
	C622.848022,807.205444 620.659119,805.266724 618.210144,803.110840 
	C623.765625,787.050293 629.581238,771.206848 635.683350,755.128784 
	C640.647705,758.327271 645.325439,761.760376 650.224976,765.522217 
	C642.166321,780.148193 633.885925,794.445312 625.321167,808.943359 
z"/>
<path fill="#9C2AE6" opacity="1.000000" stroke="none" 
	d="
M635.327942,817.000610 
	C632.982727,815.469971 630.932251,813.767700 628.523438,812.023193 
	C638.582153,797.085693 648.999207,782.190491 659.696411,767.092651 
	C659.977722,773.854919 665.156067,775.839661 670.755493,777.878662 
	C659.269653,790.951782 647.446167,803.890381 635.327942,817.000610 
z"/>
<path fill="#9C2AE6" opacity="1.000000" stroke="none" 
	d="
M644.360352,820.936401 
	C643.446289,819.564636 642.790344,818.068176 642.042114,816.229004 
	C654.503845,803.918701 667.057922,791.951050 679.867798,779.815552 
	C684.830872,783.107788 689.657043,780.447449 694.776611,779.987793 
	C687.274963,786.592102 679.492981,793.201721 671.583740,799.655457 
	C665.715454,804.443909 659.682068,809.030151 653.228394,814.025146 
	C652.488831,814.584351 652.243103,814.824890 651.997437,815.065430 
	C651.997437,815.065491 652.000244,814.999207 651.850037,815.131531 
	C651.461914,815.440552 651.233582,815.628906 651.014893,815.828918 
	C650.072876,816.376770 649.130798,816.924622 647.858032,817.911011 
	C647.339050,818.576477 647.167664,818.815552 647.013184,819.066772 
	C647.013184,819.066772 647.002686,819.004395 646.851318,819.134033 
	C646.461853,819.440369 646.233521,819.628662 646.014771,819.828613 
	C645.549316,820.156311 645.083862,820.483948 644.360352,820.936401 
z"/>
<path fill="#BB17DA" opacity="1.000000" stroke="none" 
	d="
M669.107422,529.411316 
	C674.559265,529.118652 677.285889,531.023865 678.026489,535.800903 
	C675.055725,533.972046 672.156860,531.841553 669.107422,529.411316 
z"/>
<path fill="#C610D6" opacity="1.000000" stroke="none" 
	d="
M268.118225,219.316986 
	C270.310333,219.421280 272.981995,219.395142 271.333832,223.185516 
	C270.126068,222.186432 269.098267,220.912018 268.118225,219.316986 
z"/>
<path fill="#D804CF" opacity="1.000000" stroke="none" 
	d="
M348.089661,142.320862 
	C350.176300,143.507950 352.447113,144.981384 354.837646,146.784912 
	C352.729523,145.612411 350.501678,144.109818 348.089661,142.320862 
z"/>
<path fill="#D00AD3" opacity="1.000000" stroke="none" 
	d="
M542.893555,352.621155 
	C542.054260,353.157379 541.063538,353.432831 540.072754,353.708282 
	C539.965271,352.892395 539.857727,352.076477 539.933594,351.107452 
	C540.992004,351.423004 541.867004,351.891693 542.893555,352.621155 
z"/>
<path fill="#D507D1" opacity="1.000000" stroke="none" 
	d="
M695.032776,423.334198 
	C696.200134,423.863068 697.497375,424.666412 698.917542,425.794006 
	C697.747864,425.281738 696.455261,424.445221 695.032776,423.334198 
z"/>
<path fill="#D507D1" opacity="1.000000" stroke="none" 
	d="
M708.093872,434.397705 
	C708.905579,434.595764 709.858582,435.080414 710.885254,435.840973 
	C710.051025,435.639343 709.143127,435.161835 708.093872,434.397705 
z"/>
<path fill="#C610D6" opacity="1.000000" stroke="none" 
	d="
M274.095276,225.398544 
	C274.906342,225.596268 275.858673,226.080200 276.883911,226.840057 
	C276.050079,226.638916 275.143311,226.161835 274.095276,225.398544 
z"/>
<path fill="#D507D1" opacity="1.000000" stroke="none" 
	d="
M701.037231,428.340881 
	C701.795898,428.762665 702.703125,429.478333 703.614624,430.513245 
	C702.807922,430.099915 701.996765,429.367310 701.037231,428.340881 
z"/>
<path fill="#D00AD3" opacity="1.000000" stroke="none" 
	d="
M547.891968,356.622742 
	C547.096863,356.403137 546.141846,355.916840 545.113403,355.153687 
	C545.937317,355.369965 546.834717,355.863007 547.891968,356.622742 
z"/>
<path fill="#D00AD3" opacity="1.000000" stroke="none" 
	d="
M552.891846,360.622742 
	C552.096741,360.403137 551.141785,359.916840 550.113342,359.153717 
	C550.937195,359.369995 551.834656,359.863037 552.891846,360.622742 
z"/>
<path fill="#A42FF8" opacity="1.000000" stroke="none" 
	d="
M155.000870,591.003174 
	C155.203812,589.891602 155.406738,588.780090 155.730011,587.350403 
	C155.885742,588.090820 155.921173,589.149353 155.687592,590.603149 
	C155.418579,590.998413 155.000870,591.003174 155.000870,591.003174 
z"/>
<path fill="#9330E9" opacity="1.000000" stroke="none" 
	d="
M581.324951,871.073730 
	C581.536316,870.852234 582.048767,870.562744 582.831360,870.153687 
	C582.609680,870.357971 582.117859,870.681885 581.324951,871.073730 
z"/>
<path fill="#9C2AE6" opacity="1.000000" stroke="none" 
	d="
M609.865967,727.745850 
	C609.761902,727.748840 609.743164,727.503723 609.800171,727.133789 
	C609.826721,727.012512 609.902161,727.501221 609.865967,727.745850 
z"/>
<path fill="#9330E9" opacity="1.000000" stroke="none" 
	d="
M646.257690,819.804688 
	C646.233521,819.628662 646.461853,819.440369 646.882812,819.137085 
	C646.987793,819.348328 646.799377,819.605042 646.257690,819.804688 
z"/>
<path fill="#9330E9" opacity="1.000000" stroke="none" 
	d="
M647.231567,818.963684 
	C647.167664,818.815552 647.339050,818.576477 647.673096,818.183350 
	C647.875366,818.376770 647.752380,818.657898 647.231567,818.963684 
z"/>
<path fill="#9C2AE6" opacity="1.000000" stroke="none" 
	d="
M551.719482,695.042236 
	C551.737427,695.185486 551.507751,695.425537 551.073975,695.814758 
	C551.085754,695.703491 551.286377,695.428589 551.719482,695.042236 
z"/>
<path fill="#AC2BF7" opacity="1.000000" stroke="none" 
	d="
M37.745285,378.059845 
	C37.773590,378.209930 37.554550,378.441132 37.141594,378.816071 
	C37.145351,378.700378 37.328770,378.427429 37.745285,378.059845 
z"/>
<path fill="#9537F9" opacity="1.000000" stroke="none" 
	d="
M155.130920,591.172546 
	C155.000870,591.003174 155.418579,590.998413 155.627426,590.996216 
	C155.859390,591.159485 155.882523,591.324829 155.864777,591.737305 
	C155.626190,591.779175 155.438538,591.564941 155.130920,591.172546 
z"/>
<path fill="#9330E9" opacity="1.000000" stroke="none" 
	d="
M586.886230,865.747070 
	C586.801392,865.748047 586.789429,865.504639 586.833862,865.138794 
	C586.853516,865.017822 586.922546,865.504150 586.886230,865.747070 
z"/>
<path fill="#9330E9" opacity="1.000000" stroke="none" 
	d="
M583.222290,869.985657 
	C583.224487,869.856506 583.470947,869.625183 583.902527,869.222778 
	C583.880615,869.328918 583.673584,869.606201 583.222290,869.985657 
z"/>
<path fill="#9330E9" opacity="1.000000" stroke="none" 
	d="
M651.257812,815.804810 
	C651.233582,815.628906 651.461914,815.440552 651.882690,815.137207 
	C651.987793,815.348328 651.799500,815.605042 651.257812,815.804810 
z"/>
<path fill="#9330E9" opacity="1.000000" stroke="none" 
	d="
M652.242432,814.959045 
	C652.243103,814.824890 652.488831,814.584351 652.935364,814.182007 
	C652.919922,814.297668 652.703674,814.575134 652.242432,814.959045 
z"/>
<path fill="#803CF1" opacity="1.000000" stroke="none" 
	d="
M530.282959,911.995300 
	C530.285767,911.873047 530.518250,911.627991 530.939453,911.214355 
	C530.922974,911.321228 530.717834,911.596863 530.282959,911.995300 
z"/>
<path fill="#B31CDE" opacity="1.000000" stroke="none" 
	d="
M716.732300,686.970154 
	C716.799805,687.124512 716.620850,687.389526 716.282715,687.836914 
	C716.252869,687.712280 716.373596,687.399475 716.732300,686.970154 
z"/>
<path fill="#9C2AE6" opacity="1.000000" stroke="none" 
	d="
M681.673889,778.112061 
	C681.718140,778.275452 681.488464,778.615173 681.093506,779.214905 
	C681.085449,779.079407 681.242737,778.683838 681.673889,778.112061 
z"/>
<path fill="#9C2AE6" opacity="1.000000" stroke="none" 
	d="
M609.237793,733.994873 
	C609.173218,733.851929 609.340149,733.602661 609.668823,733.191467 
	C609.872986,733.379883 609.752563,733.666260 609.237793,733.994873 
z"/>
<path fill="#D804CF" opacity="1.000000" stroke="none" 
	d="
M358.015442,150.267273 
	C358.161774,150.239532 358.406860,150.459274 358.811707,150.870392 
	C358.697144,150.866653 358.411407,150.684311 358.015442,150.267273 
z"/>
<path fill="#9C2AE6" opacity="1.000000" stroke="none" 
	d="
M609.866516,724.755249 
	C609.763062,724.757080 609.746826,724.512695 609.806763,724.144836 
	C609.833923,724.024353 609.904724,724.511902 609.866516,724.755249 
z"/>
<path fill="#4C6971" opacity="1.000000" stroke="none" 
	d="
M614.745789,830.611023 
	C614.160034,831.515625 613.574280,832.420166 612.988525,833.324768 
	C612.758118,833.217407 612.527710,833.110046 612.297241,833.002686 
	C612.674438,832.082764 613.051575,831.162903 613.882690,830.256348 
	C614.473022,830.383484 614.609436,830.497253 614.745789,830.611023 
z"/>
<path fill="#4C6971" opacity="1.000000" stroke="none" 
	d="
M614.132446,830.098267 
	C614.363586,829.332642 614.798767,828.738342 615.233948,828.144043 
	C615.215515,828.826721 615.197144,829.509460 614.962280,830.401611 
	C614.609436,830.497253 614.473022,830.383484 614.132446,830.098267 
z"/>
<path fill="#4C6971" opacity="1.000000" stroke="none" 
	d="
M620.814819,834.220398 
	C620.530579,834.104553 620.408997,833.850464 620.349548,833.582642 
	C620.339600,833.537720 620.598755,833.433167 620.733521,833.356201 
	C620.821838,833.596680 620.910156,833.837097 620.814819,834.220398 
z"/>
</svg>